<svg width="470" height="323" viewBox="0 0 470 323" fill="none" xmlns="http://www.w3.org/2000/svg">
<g clip-path="url(#clip0_265_12391)">
<circle cx="236.152" cy="193.152" r="129.131" transform="rotate(-15 236.152 193.152)" fill="url(#paint0_linear_265_12391)"/>
<path d="M122.136 138.952H136.824L120.12 193H97.8484L81.1444 138.952H95.8324L108.888 187.528L122.136 138.952ZM151.582 193.96C147.998 193.96 145.15 193.16 143.038 191.56C140.926 189.896 139.422 187.56 138.526 184.552C137.63 181.544 137.182 177.96 137.182 173.8C137.182 169.64 137.63 166.024 138.526 162.952C139.422 159.88 140.926 157.512 143.038 155.848C145.15 154.12 147.998 153.256 151.582 153.256C154.206 153.256 156.318 153.64 157.918 154.408C159.518 155.112 160.766 155.944 161.662 156.904C162.558 157.864 163.166 158.728 163.486 159.496C163.87 160.2 164.062 160.552 164.062 160.552H164.254V153.256H178.078V193H166.366L164.254 187.624H164.062C164.126 187.624 163.966 187.944 163.582 188.584C163.198 189.224 162.526 189.96 161.566 190.792C160.67 191.624 159.39 192.36 157.726 193C156.126 193.64 154.078 193.96 151.582 193.96ZM157.246 182.92C159.422 182.92 160.99 182.504 161.95 181.672C162.974 180.776 163.614 179.624 163.87 178.216C164.126 176.808 164.254 175.368 164.254 173.896C164.254 172.36 164.126 170.92 163.87 169.576C163.614 168.168 162.974 167.048 161.95 166.216C160.99 165.384 159.422 164.968 157.246 164.968C155.07 164.968 153.47 165.416 152.446 166.312C151.486 167.144 150.878 168.232 150.622 169.576C150.366 170.92 150.238 172.36 150.238 173.896C150.238 175.432 150.366 176.904 150.622 178.312C150.878 179.656 151.486 180.776 152.446 181.672C153.47 182.504 155.07 182.92 157.246 182.92ZM200.299 193.96C199.851 193.96 198.891 193.896 197.419 193.768C196.011 193.704 194.379 193.448 192.523 193C190.731 192.488 188.971 191.688 187.243 190.6C185.515 189.512 184.075 188.04 182.923 186.184C181.835 184.264 181.291 181.8 181.291 178.792H193.579C193.579 178.856 193.579 179.176 193.579 179.752C193.643 180.328 193.835 180.968 194.155 181.672C194.539 182.376 195.147 183.016 195.979 183.592C196.875 184.104 198.187 184.36 199.915 184.36C201.387 184.36 202.443 184.168 203.083 183.784C203.787 183.4 204.235 182.984 204.427 182.536C204.619 182.088 204.715 181.736 204.715 181.48C204.715 180.52 204.171 179.752 203.083 179.176C201.995 178.6 200.587 178.088 198.859 177.64C197.131 177.128 195.275 176.584 193.291 176.008C191.371 175.368 189.547 174.568 187.819 173.608C186.091 172.584 184.683 171.272 183.595 169.672C182.507 168.072 181.963 166.024 181.963 163.528C181.963 159.432 183.467 156.456 186.475 154.6C189.547 152.744 193.387 151.816 197.995 151.816C200.875 151.816 203.499 152.168 205.867 152.872C208.235 153.512 210.283 154.504 212.011 155.848C213.739 157.128 215.083 158.76 216.043 160.744C217.067 162.664 217.611 164.904 217.675 167.464H205.579C205.579 166.376 205.387 165.48 205.003 164.776C204.619 164.008 204.075 163.432 203.371 163.048C202.731 162.6 201.995 162.28 201.163 162.088C200.395 161.896 199.563 161.8 198.667 161.8C196.811 161.8 195.595 162.12 195.019 162.76C194.443 163.336 194.155 163.944 194.155 164.584C194.155 165.736 194.699 166.664 195.787 167.368C196.939 168.008 198.379 168.584 200.107 169.096C201.899 169.608 203.787 170.152 205.771 170.728C207.819 171.304 209.707 172.072 211.435 173.032C213.227 173.928 214.667 175.144 215.755 176.68C216.907 178.152 217.483 180.072 217.483 182.44C217.483 184.936 216.779 187.048 215.371 188.776C214.027 190.44 212.075 191.72 209.515 192.616C206.955 193.512 203.883 193.96 200.299 193.96ZM237.62 193C233.78 193 230.74 192.104 228.5 190.312C226.26 188.52 225.14 185.256 225.14 180.52V161.128H237.62V182.728H246.836V193H237.62ZM219.572 162.376V153.256C220.724 153.256 221.748 153.16 222.644 152.968C223.54 152.712 224.308 152.264 224.948 151.624C225.652 150.92 226.164 149.896 226.484 148.552C226.868 147.208 227.06 145.416 227.06 143.176H237.62V153.256H246.548V162.376H219.572ZM278.322 193.96C276.018 193.96 274.066 193.64 272.466 193C270.93 192.36 269.682 191.624 268.722 190.792C267.762 189.96 267.058 189.224 266.61 188.584C266.226 187.944 266.034 187.624 266.034 187.624H265.842L263.73 193H252.018V138.952H265.842V160.552H266.034C266.034 160.552 266.226 160.2 266.61 159.496C266.994 158.728 267.634 157.864 268.53 156.904C269.426 155.944 270.674 155.112 272.274 154.408C273.874 153.64 275.89 153.256 278.322 153.256C282.29 153.256 285.394 154.088 287.634 155.752C289.874 157.352 291.474 159.688 292.434 162.76C293.394 165.832 293.874 169.576 293.874 173.992C293.874 178.088 293.394 181.64 292.434 184.648C291.538 187.656 289.97 189.96 287.73 191.56C285.49 193.16 282.354 193.96 278.322 193.96ZM273.33 182.92C275.634 182.92 277.298 182.504 278.322 181.672C279.41 180.776 280.082 179.656 280.338 178.312C280.658 176.904 280.818 175.432 280.818 173.896C280.818 172.36 280.658 170.92 280.338 169.576C280.082 168.168 279.41 167.048 278.322 166.216C277.298 165.384 275.634 164.968 273.33 164.968C271.09 164.968 269.426 165.384 268.338 166.216C267.25 167.048 266.546 168.168 266.226 169.576C265.97 170.92 265.842 172.36 265.842 173.896C265.842 175.432 265.97 176.904 266.226 178.312C266.546 179.656 267.25 180.776 268.338 181.672C269.426 182.504 271.09 182.92 273.33 182.92ZM312.277 193.96C308.693 193.96 305.845 193.16 303.733 191.56C301.621 189.896 300.117 187.56 299.221 184.552C298.325 181.544 297.877 177.96 297.877 173.8C297.877 169.64 298.325 166.024 299.221 162.952C300.117 159.88 301.621 157.512 303.733 155.848C305.845 154.12 308.693 153.256 312.277 153.256C314.901 153.256 317.013 153.64 318.613 154.408C320.213 155.112 321.461 155.944 322.357 156.904C323.253 157.864 323.861 158.728 324.181 159.496C324.565 160.2 324.757 160.552 324.757 160.552H324.949V153.256H338.773V193H327.061L324.949 187.624H324.757C324.821 187.624 324.661 187.944 324.277 188.584C323.893 189.224 323.221 189.96 322.261 190.792C321.365 191.624 320.085 192.36 318.421 193C316.821 193.64 314.773 193.96 312.277 193.96ZM317.941 182.92C320.117 182.92 321.685 182.504 322.645 181.672C323.669 180.776 324.309 179.624 324.565 178.216C324.821 176.808 324.949 175.368 324.949 173.896C324.949 172.36 324.821 170.92 324.565 169.576C324.309 168.168 323.669 167.048 322.645 166.216C321.685 165.384 320.117 164.968 317.941 164.968C315.765 164.968 314.165 165.416 313.141 166.312C312.181 167.144 311.573 168.232 311.317 169.576C311.061 170.92 310.933 172.36 310.933 173.896C310.933 175.432 311.061 176.904 311.317 178.312C311.573 179.656 312.181 180.776 313.141 181.672C314.165 182.504 315.765 182.92 317.941 182.92ZM360.994 193.96C360.546 193.96 359.586 193.896 358.114 193.768C356.706 193.704 355.074 193.448 353.218 193C351.426 192.488 349.666 191.688 347.938 190.6C346.21 189.512 344.77 188.04 343.618 186.184C342.53 184.264 341.986 181.8 341.986 178.792H354.274C354.274 178.856 354.274 179.176 354.274 179.752C354.338 180.328 354.53 180.968 354.85 181.672C355.234 182.376 355.842 183.016 356.674 183.592C357.57 184.104 358.882 184.36 360.61 184.36C362.082 184.36 363.138 184.168 363.778 183.784C364.482 183.4 364.93 182.984 365.122 182.536C365.314 182.088 365.41 181.736 365.41 181.48C365.41 180.52 364.866 179.752 363.778 179.176C362.69 178.6 361.282 178.088 359.554 177.64C357.826 177.128 355.97 176.584 353.986 176.008C352.066 175.368 350.242 174.568 348.514 173.608C346.786 172.584 345.378 171.272 344.29 169.672C343.202 168.072 342.658 166.024 342.658 163.528C342.658 159.432 344.162 156.456 347.17 154.6C350.242 152.744 354.082 151.816 358.69 151.816C361.57 151.816 364.194 152.168 366.562 152.872C368.93 153.512 370.978 154.504 372.706 155.848C374.434 157.128 375.778 158.76 376.738 160.744C377.762 162.664 378.306 164.904 378.37 167.464H366.274C366.274 166.376 366.082 165.48 365.698 164.776C365.314 164.008 364.77 163.432 364.066 163.048C363.426 162.6 362.69 162.28 361.858 162.088C361.09 161.896 360.258 161.8 359.362 161.8C357.506 161.8 356.29 162.12 355.714 162.76C355.138 163.336 354.85 163.944 354.85 164.584C354.85 165.736 355.394 166.664 356.482 167.368C357.634 168.008 359.074 168.584 360.802 169.096C362.594 169.608 364.482 170.152 366.466 170.728C368.514 171.304 370.402 172.072 372.13 173.032C373.922 173.928 375.362 175.144 376.45 176.68C377.602 178.152 378.178 180.072 378.178 182.44C378.178 184.936 377.474 187.048 376.066 188.776C374.722 190.44 372.77 191.72 370.21 192.616C367.65 193.512 364.578 193.96 360.994 193.96ZM401.387 193.96C396.587 193.96 392.715 193 389.771 191.08C386.827 189.16 384.651 186.696 383.243 183.688C381.899 180.616 381.163 177.416 381.035 174.088C380.907 169.736 381.675 165.992 383.339 162.856C385.003 159.656 387.339 157.224 390.347 155.56C393.419 153.832 396.939 152.968 400.907 152.968C404.683 152.968 408.043 153.768 410.987 155.368C413.995 156.904 416.331 159.112 417.995 161.992C419.723 164.872 420.587 168.328 420.587 172.36C420.587 172.36 420.587 172.712 420.587 173.416C420.587 174.056 420.587 174.536 420.587 174.856H393.707C393.707 177.672 394.379 179.72 395.723 181C397.131 182.28 398.923 182.92 401.099 182.92C402.955 182.92 404.427 182.504 405.515 181.672C406.667 180.776 407.339 179.656 407.531 178.312H420.491C420.299 181.128 419.467 183.752 417.995 186.184C416.523 188.552 414.411 190.44 411.659 191.848C408.907 193.256 405.483 193.96 401.387 193.96ZM393.899 169.48H407.147C407.147 169.48 407.115 169.192 407.051 168.616C407.051 168.04 406.859 167.368 406.475 166.6C406.091 165.832 405.451 165.16 404.555 164.584C403.659 164.008 402.347 163.72 400.619 163.72C398.891 163.72 397.547 164.008 396.587 164.584C395.627 165.16 394.955 165.832 394.571 166.6C394.251 167.368 394.059 168.04 393.995 168.616C393.931 169.192 393.899 169.48 393.899 169.48Z" fill="black"/>
</g>
<defs>
<linearGradient id="paint0_linear_265_12391" x1="318.609" y1="91.5071" x2="236.152" y2="173.964" gradientUnits="userSpaceOnUse">
<stop stop-color="#4DF3AA"/>
<stop offset="1" stop-color="white" stop-opacity="0"/>
</linearGradient>
<clipPath id="clip0_265_12391">
<rect width="470" height="323" fill="white"/>
</clipPath>
</defs>
</svg>
